<svg xmlns="http://www.w3.org/2000/svg" version="1.1" xmlns:xlink="http://www.w3.org/1999/xlink" xmlns:svgjs="http://svgjs.dev/svgjs" width="1000" height="1037" viewBox="0 0 1000 1037"><g transform="matrix(1,0,0,1,0.18829213547877544,0.4206133379475432)"><svg viewBox="0 0 238 247" data-background-color="#ffffff" preserveAspectRatio="xMidYMid meet" height="1037" width="1000" xmlns="http://www.w3.org/2000/svg" xmlns:xlink="http://www.w3.org/1999/xlink"><g id="tight-bounds" transform="matrix(1,0,0,1,-0.04476258028785196,-0.09997365579206985)"><svg viewBox="0 0 238.08949901027077 247.2" height="247.2" width="238.08949901027077"><g><svg viewBox="0 0 238.08949901027077 247.2" height="247.2" width="238.08949901027077"><g><svg viewBox="0 0 238.08949901027077 247.2" height="247.2" width="238.08949901027077"><g><svg viewBox="0 0 238.08949901027077 247.2" height="247.2" width="238.08949901027077"><g><svg viewBox="0 0 238.08949901027077 247.2" height="247.2" width="238.08949901027077"><path d="M237.532 53.02C236.413 27.36 233.223 20.227 233.223 20.227 223.429-6.202 211.206-0.506 200.225 3.292 180.839 3.446 161.531 9.091 142.189 12.119 101.592 12.581 60.648 4.986 20.252 23.717 16.457 29.464-3.937 24.846 0.675 56.304 1.884 69.39 6.294 83.913 6.16 95.922 6.764 98.026 7.603 93.202 7.962 96.23 9.215 104.39 11.264 100.541 12.943 105.365 10.603 118.246 12.282 128.971 13.883 140.21 11.062 143.135 7.447 141.749 5.824 151.449 5.656 158.479 4.749 157.145 3.753 156.837 3.025 156.632 1.559 157.402 1.805 159.608 2.645 167.152-0.959 171.514 1.302 178.904-0.254 186.91 2.376 193.838 2.018 202.511 1.973 204.255 2.22 205.744 2.611 206.154 4.346 208.361 1.817 212.672 2.085 217.342 19.882 249.262 39.19 227.195 57.424 241.872 62.159 231.608 58.599 245.516 60.491 243.36 61.968 240.846 63.043 251.263 64.711 245.362 64.968 243.668 64.576 239.665 65.494 240.435 65.975 240.846 66.401 240.743 66.468 238.382 66.569 234.841 65.684 237.048 65.449 235.201 67.99 225.861 67.363 248.081 69.748 247.158 69.636 244.438 68.942 240.538 70.363 241.051 71.773 237.151 71.818 233.918 73.072 242.693 73.117 244.592 73.341 245.926 73.699 246.85 77.616 237.305 81.511 250.237 85.619 245.926 88.138 241.205 90.556 248.492 93.108 246.696 94.003 245.259 94.91 242.693 95.771 247.004 106.327 247.928 117.576 244.079 127.582 247.158 154.323 241.41 182.899 249.518 211.094 241.923 217.743 238.998 224.649 234.841 231.13 231.506 231.13 231.506 236.379 222.371 236.379 181.316S237.499 145.393 237.666 112.703C237.834 80.013 238.618 78.679 237.499 53.02Z" opacity="1" fill="#e8772e" data-fill-palette-color="tertiary"></path><g transform="matrix(1,0,0,1,55.76832,26.230666666666668)"><svg width="126.55285901027077" viewBox="2.6500000953674316 -35.099998474121094 23.200000762939453 35.69999694824219" height="194.73866666666666" data-palette-color="#ffffff"><path d="M14.1-35.1L14.1-35.1Q16.6-35.05 19.28-34.85 21.95-34.65 24.6-34.05L24.6-34.05 24.25-30.5Q22.1-30.6 19.43-30.65 16.75-30.7 14.25-30.7L14.25-30.7Q12.5-30.7 11.25-30.6 10-30.5 9.2-30.05 8.4-29.6 8.03-28.6 7.65-27.6 7.65-25.85L7.65-25.85Q7.65-23.2 8.65-22.13 9.65-21.05 11.9-20.5L11.9-20.5 18.85-18.65Q22.85-17.65 24.35-15.28 25.85-12.9 25.85-8.9L25.85-8.9Q25.85-5.9 25.18-4.05 24.5-2.2 23.08-1.2 21.65-0.2 19.4 0.2 17.15 0.6 14.05 0.6L14.05 0.6Q12.35 0.6 9.55 0.45 6.75 0.3 3.1-0.4L3.1-0.4 3.45-4.05Q6.4-3.95 8.28-3.88 10.15-3.8 11.5-3.8 12.85-3.8 14.2-3.8L14.2-3.8Q16.7-3.8 18.15-4.17 19.6-4.55 20.2-5.68 20.8-6.8 20.8-8.95L20.8-8.95Q20.8-10.8 20.38-11.85 19.95-12.9 19.03-13.43 18.1-13.95 16.65-14.3L16.65-14.3 9.5-16.25Q5.75-17.3 4.2-19.65 2.65-22 2.65-25.9L2.65-25.9Q2.65-28.9 3.33-30.75 4-32.6 5.4-33.52 6.8-34.45 8.95-34.77 11.1-35.1 14.1-35.1Z" opacity="1" transform="matrix(1,0,0,1,0,0)" fill="#ffffff" class="undefined-text-0" data-fill-palette-color="quaternary" id="text-0"></path></svg></g></svg></g></svg></g></svg></g><g></g></svg></g><defs></defs></svg><rect width="238.08949901027077" height="247.2" fill="none" stroke="none" visibility="hidden"></rect></g></svg></g></svg>